<svg width="108" height="108" viewBox="0 0 108 108" fill="none" xmlns="http://www.w3.org/2000/svg">
<g clip-path="url(#clip0_108_1010)">
<path d="M54.0001 84.5778C70.8878 84.5778 84.5779 70.8877 84.5779 54C84.5779 37.1124 70.8878 23.4222 54.0001 23.4222C37.1125 23.4222 23.4224 37.1124 23.4224 54C23.4224 70.8877 37.1125 84.5778 54.0001 84.5778Z" stroke="black" stroke-width="2.5"/>
<path d="M45.7155 50.9778C47.6791 50.9778 49.271 46.8389 49.271 41.7333C49.271 36.6278 47.6791 32.4889 45.7155 32.4889C43.7518 32.4889 42.1599 36.6278 42.1599 41.7333C42.1599 46.8389 43.7518 50.9778 45.7155 50.9778Z" fill="black"/>
<path d="M59.5112 32.7022C59.5112 32.8267 59.3512 34.2844 59.1556 35.9556C58.6934 39.9378 58.7112 40.72 59.2267 41.8222C59.7245 42.8889 60.2045 43.3333 61.3778 43.9022C62.569 44.4533 62.7467 44.9867 62.6756 47.8489L62.6223 50L61.2356 50.1067C59.7778 50.2311 59.1734 50.4978 59.7956 50.7467C60.2401 50.8889 62.1067 50.9778 62.9601 50.9778C63.8134 50.9778 65.6801 50.8889 66.1067 50.7467C66.729 50.4978 66.1245 50.2311 64.6667 50.1067L63.2801 50L63.2267 47.8489C63.1556 44.9867 63.3334 44.4533 64.5245 43.9022C65.6978 43.3333 66.1778 42.8889 66.6756 41.8222C67.1912 40.72 67.209 39.9378 66.7467 35.9556C66.5512 34.2844 66.3912 32.8267 66.3912 32.7022C66.3912 32.5422 65.5912 32.4889 62.9601 32.4889C60.3112 32.4889 59.5112 32.5422 59.5112 32.7022ZM74.5334 54.3022C73.4845 54.4267 73.2001 54.5333 73.0223 54.9067C72.8623 55.1911 72.8801 55.3689 73.1112 55.7244C73.3778 56.1333 73.4845 56.1689 74.2134 56.0622L75.0312 55.9556L74.9067 57.2533C74.3201 63.6889 70.0001 69.6444 63.7067 72.6667C60.6312 74.1244 57.6445 74.8 54.1245 74.8C47.9023 74.8 42.5867 72.6667 38.4978 68.56C35.4756 65.5022 33.449 61.3244 33.0756 57.3422L32.969 56.1511L33.4845 56.2933C34.4801 56.5778 35.2445 55.8844 34.8178 55.0844C34.409 54.3378 31.3512 54.3378 29.9112 55.0667C28.8801 55.6 28.6312 56.1156 29.1112 56.7022C29.449 57.1289 29.449 57.1289 30.729 56.5956C30.9601 56.4889 31.049 56.72 31.2267 58C32.5601 67.5467 40.1512 74.9067 50.3556 76.5245C52.5067 76.8622 56.9512 76.7556 58.9778 76.3111C62.0001 75.6533 64.8623 74.4444 67.4401 72.7378C69.3423 71.4756 72.2578 68.6133 73.4312 66.8533C75.1734 64.2222 76.3467 61.1111 76.7734 57.9644C76.8979 57.1111 77.0045 56.3644 77.0401 56.3467C77.0579 56.3111 77.3245 56.4178 77.609 56.5956C78.2312 56.9511 78.6401 56.8444 78.9245 56.2222C79.1023 55.8311 79.0667 55.7067 78.7112 55.3333C78.0712 54.64 75.9378 54.1067 74.5334 54.3022Z" fill="black"/>
</g>
<defs>
<clipPath id="clip0_108_1010">
<rect width="64" height="64" fill="white" transform="translate(22 22)"/>
</clipPath>
</defs>
</svg>
